<?xml version="1.0" standalone="no"?>
<!DOCTYPE svg PUBLIC "-//W3C//DTD SVG 20010904//EN"
 "http://www.w3.org/TR/2001/REC-SVG-20010904/DTD/svg10.dtd">
<svg version="1.0" xmlns="http://www.w3.org/2000/svg"
 width="260.000000pt" height="260.000000pt" viewBox="0 0 260.000000 260.000000"
 preserveAspectRatio="xMidYMid meet">
<metadata>
Created by potrace 1.11, written by Peter Selinger 2001-2013
</metadata>
<g transform="translate(0.000000,260.000000) scale(0.100000,-0.100000)"
fill="#000000" stroke="none">
<path d="M1965 2518 c-25 -13 -45 -38 -45 -54 0 -7 12 -26 26 -43 39 -46 30
-71 -31 -87 -27 -6 -53 -10 -57 -7 -5 2 -8 24 -8 49 0 59 -14 84 -46 84 -38 0
-104 -40 -121 -73 -13 -25 -13 -31 1 -53 9 -13 27 -26 41 -30 37 -9 40 -38 9
-79 -14 -19 -32 -35 -39 -35 -7 0 -24 15 -38 34 -35 45 -60 50 -97 20 l-29
-25 -104 101 c-73 70 -111 100 -128 100 -17 0 -81 -54 -226 -191 -176 -164
-203 -186 -203 -164 0 14 -11 37 -25 50 -24 25 -24 25 -238 25 l-214 0 -27
-26 -26 -27 0 -271 0 -271 -114 -105 c-62 -58 -119 -115 -125 -128 -12 -24
-15 -201 -4 -240 3 -13 17 -28 31 -33 31 -12 70 13 162 106 35 36 69 65 75 65
6 0 44 -218 90 -508 62 -395 84 -511 98 -524 16 -17 65 -18 750 -18 702 0 735
1 751 19 12 14 34 137 88 512 39 272 73 496 75 498 2 3 43 -35 92 -82 49 -48
95 -87 102 -87 8 0 25 7 37 16 21 14 22 22 22 142 l0 127 -102 103 c-98 97
-103 104 -103 145 0 38 -3 44 -33 57 -40 18 -53 55 -26 75 17 12 20 11 25 -16
8 -37 36 -69 61 -69 24 0 93 70 102 105 8 30 -15 65 -43 65 -38 1 -44 15 -22
58 11 22 23 58 27 80 6 36 10 41 40 47 23 4 41 1 56 -10 27 -18 79 -20 96 -3
17 17 15 103 -3 138 -13 24 -22 30 -49 30 -20 0 -40 -8 -51 -20 -11 -12 -31
-20 -51 -20 -30 0 -35 5 -58 56 -14 30 -35 68 -46 85 l-21 29 28 28 c16 15 43
35 61 44 68 36 19 122 -77 135 -34 5 -41 2 -56 -21 -10 -15 -15 -35 -12 -48 4
-15 -1 -32 -13 -46 -19 -24 -20 -24 -70 -7 -46 15 -50 19 -50 48 1 18 7 43 15
57 18 31 19 72 3 88 -15 15 -106 15 -133 0z m-233 -799 c322 -313 422 -416
421 -433 -3 -27 -141 -981 -148 -1023 l-6 -33 -124 0 c-123 0 -125 0 -125 23
0 12 11 141 25 287 14 146 25 306 25 356 0 327 -222 584 -506 584 -276 0 -505
-265 -503 -585 0 -38 12 -204 27 -367 l28 -298 -121 0 -120 0 -78 543 c-43
298 -79 547 -80 554 -2 12 838 803 853 803 5 0 199 -185 432 -411z m-937 203
c-232 -216 -346 -322 -368 -341 l-27 -24 0 191 0 192 207 0 c202 0 207 -1 188
-18z m485 -822 l0 -130 -106 0 -106 0 4 53 c8 96 57 161 145 193 65 23 63 26
63 -116z m128 103 c71 -34 132 -144 116 -208 -6 -25 -8 -25 -105 -25 l-99 0 0
131 0 131 28 -7 c15 -3 42 -14 60 -22z m-128 -358 l0 -85 -89 0 -89 0 -6 28
c-3 15 -8 53 -12 85 l-6 57 101 0 101 0 0 -85z m236 68 c-2 -10 -7 -48 -11
-85 l-7 -68 -89 0 -89 0 0 85 0 85 101 0 c91 0 100 -2 95 -17z m124 -293 c11
-11 20 -31 20 -45 0 -14 -9 -34 -20 -45 -11 -11 -31 -20 -45 -20 -14 0 -34 9
-45 20 -11 11 -20 31 -20 45 0 14 9 34 20 45 11 11 31 20 45 20 14 0 34 -9 45
-20z"/>
</g>
</svg>
